<?xml version="1.0" standalone="no"?>
<!DOCTYPE svg PUBLIC "-//W3C//DTD SVG 20010904//EN"
 "http://www.w3.org/TR/2001/REC-SVG-20010904/DTD/svg10.dtd">
<svg version="1.0" xmlns="http://www.w3.org/2000/svg"
 width="747.000000pt" height="237.000000pt" viewBox="0 0 747.000000 237.000000"
 preserveAspectRatio="xMidYMid meet">
<metadata>
Created by potrace 1.11, written by Peter Selinger 2001-2013
</metadata>
<g transform="translate(0.000000,237.000000) scale(0.100000,-0.100000)"
fill="#000000" stroke="none">
<path d="M4941 1884 c-128 -22 -305 -85 -459 -163 -208 -106 -430 -256 -867
-589 -555 -422 -896 -585 -1255 -599 -373 -14 -726 133 -1254 525 -72 54 -119
96 -140 129 -22 35 -39 49 -58 51 -40 5 -68 -14 -68 -46 0 -37 12 -53 41 -54
13 -1 88 -49 169 -108 413 -303 667 -442 939 -512 154 -40 374 -50 532 -23
308 51 617 210 1069 550 52 40 127 94 165 120 39 27 75 54 80 61 16 19 228
172 364 263 143 96 296 183 406 231 l76 33 75 -74 c104 -102 354 -438 354
-475 0 -18 26 -35 44 -28 9 3 16 16 16 28 0 45 -278 424 -381 521 -28 26 -48
49 -46 51 2 3 58 18 123 35 412 106 818 -6 1339 -369 110 -77 276 -202 297
-223 63 -65 118 -84 118 -41 0 25 -30 51 -199 176 -401 296 -664 439 -942 511
-89 23 -129 28 -279 31 -124 2 -199 -1 -259 -12z"/>
</g>
</svg>
